<svg id="svg" viewBox="0 0 777 719" xmlns="http://www.w3.org/2000/svg" xmlns:xlink="http://www.w3.org/1999/xlink" version="1.1" width="971.25" height="898.75" preserveAspectRatio="xMidYMid meet" buffered-rendering="static" style="background: rgb(255, 255, 255);"><g><path d="M 110 0 L 0 0 L 0.0008363781968907524 309.25 L 0.0016727563937812828 618.5 L 13.75083637819689 618.1099425268426 C 21.3128763701886 617.8954109166059 37.625 618.2588172380582 50 618.9175121300699 C 62.375 619.5762070220816 84.79832389117676 620.2017328850025 99.82960864705947 620.3075696032274 L 127.15921729411895 620.5 L 128.59659188340248 622.5 C 129.38714790750845 623.6 130.01805789779246 625.625 129.9986140840336 627 C 129.96887116459192 629.1033175250252 130.5612000961638 629.6172584408976 133.73163084769058 630.2389943361189 C 135.80423388146076 630.6454412209844 143.9125 630.9829412209843 151.75 630.9889943361189 C 160.2386037716649 630.9955503164649 166.2021542536258 631.4043085072516 166.5 632 C 166.78333333333333 632.5666666666667 171.33333333333334 633 177 633 C 182.66666666666666 633 187.21666666666667 632.5666666666667 187.5 632 C 187.82463768115943 631.3507246376812 208.16666666666669 631 245.5 631 C 282.8333333333333 631 303.1753623188406 631.3507246376812 303.5 632 C 303.79899464040324 632.5979892808065 309.728652748507 632.9917030814141 318.25 632.9793614493599 C 328.5190226647329 632.9644886251992 333.7571507374528 633.3893045974962 337 634.5 C 339.54554829482316 635.3718656215585 344.757419508628 636.025074602263 349 636.0039718839735 C 353.125 635.9834540144548 356.95 636.4070005017749 357.5 636.9451863002405 C 358.0825762864472 637.5152486345835 369.1096739435212 638.0439853384171 383.917036931657 638.2118529669071 C 403.6029891577563 638.4350280263293 409.40915104692226 638.2181474811084 409.667036931657 637.25 C 409.9076175699042 636.3468193580582 412.9826464793001 636.0046242581075 420.75 636.0166666666667 C 428.09247430752697 636.0280503477637 431.9132867664992 635.6318264300343 432.8038295645665 634.7666666666667 C 433.6261891910325 633.9677466581277 437.5958812238261 633.4076815806327 443.5538295645665 633.25 L 453 633 L 454.6040321248811 629.25 C 455.4862497935657 627.1875 457.110497683523 623.475 458.2134718803418 621 C 459.3164460771605 618.525 460.619631620964 615.7125 461.10943975546064 614.75 C 461.59924788995727 613.7875 461.8875 612.780158797056 461.75 612.5114639934577 C 461.6125 612.2427691898595 460.15 613.3199003843229 458.5 614.9050888700431 L 455.5 617.7872497531707 L 421 619.3826751634973 C 402.025 620.260159139177 382.3375 621.2080279447135 377.25 621.489050286912 C 372.1625 621.7700726291104 368.1777008494536 621.6625 368.3948907765635 621.25 C 368.6120807036734 620.8375 376.9236767082748 617.8 386.86510412012206 614.5 C 396.8065315319693 611.2 404.9538306825158 608.1625 404.97021334355856 607.75 C 404.9865960046013 607.3375 403.0875 607.0006151881852 400.75 607.0013670848559 C 398.4125 607.0021189815268 392.9 607.6529232775973 388.5 608.4475988539017 C 384.1 609.2422744302061 376.675 611.0322172422234 372 612.4252495472736 C 367.325 613.8182818523237 362.9375 614.9674775562531 362.25 614.9790177782279 C 361.2768637765733 614.9953526262714 361 608.2445238516118 361 584.5 L 361 554 L 363.75 554.6481111696387 C 365.2625 555.00457231294 370.55 557.4136249349456 375.5 560.001561440762 C 380.45 562.5894979465784 388.775 567.5417815630302 394 571.0066361439882 C 399.225 574.4714907249462 407.91023829538966 580.4999381029407 413.3005295453103 584.4031858728649 L 423.10105909062065 591.5 L 420.126104189898 594 C 418.4898789945005 595.375 416.89355305233903 597.4 416.5787132073169 598.5 L 416.00627712545855 600.5 L 425.2531385627293 601.2956879903295 C 430.3389123532282 601.7333163850108 437.425 602.7664255870513 441 603.5914862170865 C 444.575 604.4165468471217 448.5125 605.7459872514734 449.75 606.545798226757 C 451.1355761551572 607.4413125831094 452.19209418774284 607.6158116245143 452.5 607 C 452.775 606.45 452.0886964532111 603.4125 450.97488100713576 600.25 C 449.86106556106046 597.0875 447.30326384462523 590.675 445.2908771928352 586 C 443.2784905410452 581.325 439.6897940878341 574.0125 437.3159961856994 569.75 C 434.9421982835647 565.4875 433 561.55 433 561 C 433 560.45 433.45 560 434 560 C 434.55 560 435.225 559.1 435.5 558 C 435.878270423241 556.4869183070358 433.8450668983204 553.8697324067183 427.14868728268596 547.25 C 420.41395155728816 540.5923505101158 417.493999220219 536.8261195919073 414.9377394391814 531.5 C 413.08994011977666 527.65 411.3928182409144 522.475 411.1663574861541 520 C 410.9398967313938 517.525 411.463279170886 513.025 412.3294295739145 510 C 413.19557997694307 506.975 415.2757925785967 502.3625 416.9521242442559 499.75 C 418.62845590991515 497.1375 420.45 495 421 495 C 421.55 495 423.63109305786764 497.5875 425.6246512397059 500.75 C 428.18363206387096 504.80946359135595 429.0957792078737 507.2350158298452 428.7271257272105 509 C 428.4399285134998 510.375 427.6557036703807 514.425 426.98440385361255 518 C 426.088406010642 522.7716269371872 426.0506752462486 525.4306624184377 426.84250742289754 528 C 427.4357642027724 529.925 429.6263959880239 533.1703473115277 431.7105780567896 535.2118829145061 C 434.7657355393268 538.2045258638809 437.43766878346395 539.4981997663767 445.5 541.8883278958981 L 455.5 544.852889962784 L 460.75 550.426444981392 C 463.9749779957952 553.8501768467949 467.5206651293514 559.182177435179 469.9424223107294 564.25 C 472.11075458163054 568.7875 475.22417065841717 577.675 476.8611247035885 584 C 479.02903733621673 592.3765622143283 480.04106493823997 594.9567934285789 480.587249000559 593.5 C 480.99966331872145 592.4 481.04726389045436 586.775 480.69302804885433 581 C 480.33879220725436 575.225 479.3629462337894 567.9125 478.5244814411544 564.75 C 477.6860166485195 561.5875 475.91982466282906 556.8625 474.59961036184234 554.25 C 473.2793960608556 551.6375 470.4668960608556 547.7676753371733 468.34961036184234 545.6503896381628 C 466.23232466282906 543.5331039391523 462.475 540.782037309276 460 539.5369082384377 C 457.525 538.2917791675995 453.7 536.7007071774397 451.5 536.0011927047492 C 449.3 535.3016782320586 445.8125 533.8902448619349 443.75 532.8646741044741 C 441.6875 531.8391033470134 439.2125 529.8627314436462 438.25 528.472736541436 L 436.5 525.9454730828719 L 443.6263163008206 518.722736541436 C 448.87837969898914 513.3996118550502 451.0993799814763 510.31647997283494 452.07104139358717 507 C 453.2240495018955 503.0645465055426 453.1602704169389 501.6218165469338 451.562658329505 495.5 C 450.55792280868945 491.65 447.7702965169445 484.5625 445.3679332367384 479.75 C 442.96556995653225 474.9375 441.225 470.775 441.5 470.5 C 441.775 470.225 443.2375 470.8675635104957 444.75 471.9279189122126 C 446.2625 472.98827431392954 449.525 474.578276457801 452 475.4612570097047 C 455.1693540091644 476.5919551722058 457.8306459908356 476.85310988005824 461 476.34443419840073 C 463.475 475.9472011002798 467.525 474.2446989564084 470 472.5610961009086 C 472.7751953012216 470.6732873196132 474.59582248326547 468.6375976506108 474.75 467.25 C 474.8875 466.0125 474.55 465 474 465 C 473.45 465 470.68278011991515 462.8625 467.8506224887003 460.25 C 465.0184648574855 457.6375 459.6654223494713 451.225 455.954972470891 446 C 452.2445225923107 440.775 447.9242424723956 435.3120082494145 446.3543499821907 433.86001833203215 C 444.7844574919858 432.40802841464983 441.475 430.1787370733132 439 428.9060375735063 C 435.11917732992436 426.91043310035695 432.5278327229619 426.5169089860542 420.1668642119759 426.04601924147414 C 407.3317479780704 425.5570668912058 405.68387067147086 425.2909711348203 404.3998809756374 423.5 C 403.61126487906444 422.4 402.962619356623 420.15 402.9584464813231 418.5 C 402.9542736060232 416.85 403.6369160623755 413.8125 404.47542971766165 411.75 L 406 408 L 408.25 409.52307695318643 C 409.4875 410.3607692774389 411.85 411.9392853122973 413.5 413.0308903639827 C 415.15 414.1224954156681 418.975 415.95665479253387 422 417.1068000903511 C 426.044975892493 418.6447538101973 428.955024107507 419.0741658822002 433 418.7299803413383 C 436.025 418.4725841815641 440.4125 417.30304017576447 442.75 416.1309936617835 C 445.0875 414.9589471478026 448.8206389471041 412.3125 451.0458643268979 410.25 C 453.2710897066918 408.1875 455.0710897066918 406.1625 455.0458643268979 405.75 C 455.0206389471041 405.3375 452.075 405 448.5 405 C 443.7611426165454 405 440.3065936379371 404.29379578779503 435.75 402.3935515862216 C 432.3125 400.9600049586434 425.9 397.29060682297785 421.5 394.2393335069647 C 417.1 391.18806019095166 409.9 385.66699869114774 405.5 381.970307951845 C 401.1 378.2736172125422 396.9375 374.51801534820777 396.25 373.6245260311018 C 395.20098877654493 372.26120919956526 395.5991855070257 371.1558471385113 398.72648610861467 366.75 C 400.77605346835276 363.8625 403.2510534683527 359.3625 404.22648610861467 356.75 C 405.2019187488766 354.1375 406.26608476988224 349.4125 406.59129948862716 346.25 C 406.95068612874616 342.7552004602913 406.61163925899007 337.7545385700802 405.7268444056207 333.5 C 404.9261793912222 329.65 402.8724031852883 323.575 401.1628972813231 320 C 399.45339137735795 316.425 395.7923961647109 310.4625 393.0273523643296 306.75 L 388 300 L 389.75 295.25 C 391.0425659472422 291.7416067146283 391.43465227817745 288.08213429256597 391.25 281.25 C 391.09684684684686 275.5833333333333 391.3873873873874 272 392 272 C 392.55 272 393.8644386854493 273.9125 394.9209748565539 276.25 C 395.9775110276585 278.5875 397.21501102765853 282.24347382439726 397.6709748565539 284.3743862764384 C 398.12693868544926 286.50529872847954 398.8375 288.4177987284795 399.25 288.6243862764384 C 399.6625 288.8309738243973 401.4437351580077 285.9625 403.2083003511283 282.25 C 405.59130712779023 277.2363497858573 406.5248220565286 273.6993409628146 406.83730749030497 268.5 C 407.1214789079661 263.7717665125984 406.7038082464794 259.55277156062994 405.55033780649603 255.5 C 404.6111157469744 252.2 402.68820190815165 247.475 401.2771959424455 245 C 399.86618997673924 242.525 396.1890911764455 237.37768567003286 393.1058652751261 233.56152371118412 L 387.5 226.62304742236827 L 394 227.2588986005989 C 398.4338413859359 227.69263141126586 402.725093892069 228.99310879081332 407.5 231.35011546532522 C 411.4010880136966 233.27578484568616 416.160131421234 236.6193449147217 418.25 238.90274057591043 C 420.3125 241.1562332591597 422.225 243 422.5 243 C 422.775 243 423 242.325 423 241.5 C 423 240.675 421.9198246628282 237.8625 420.5996103618404 235.25 C 419.2793960608526 232.6375 416.4668960608526 228.76712737912237 414.3496103618404 226.64917195360528 C 412.2323246628282 224.53121652808818 407.9125 221.49371652808819 404.75 219.89917195360528 C 401.5875 218.30462737912237 395.7375 216.1018378715731 391.75 215.00408415905133 C 387.7625 213.90633044652955 379.775 212.09106415564474 374 210.9701590681962 C 368.225 209.84925398074768 361.8245177598051 207.93491610917457 359.77670613290013 206.71607490914488 C 356.7452033932215 204.9117485792335 356.28070129365983 204.24515955744752 357.27670613290013 203.12842147111414 C 358.16143686482667 202.13644586460453 359.8838176756988 201.9290656443412 363.5 202.3791167617397 C 366.25 202.721367362471 370.19576611853927 203.33857770046964 372.26836915230945 203.75069529062557 C 375.0191801106027 204.29766813811975 376.0317781532393 204.16246731912113 376.01836915230945 203.25 C 376.00826611853927 202.5625 374.2 201.325 372 200.5 C 369.8 199.675 366.3125 197.49238399677776 364.25 195.64974221506174 C 361.7030688166768 193.37430860849355 360.09897706110775 190.80776179958306 359.25 187.64974221506174 C 358.4503090183697 184.67505668202926 357.9978763025404 175.88511750975877 357.9941048886071 163.25 C 357.99041304695 150.88146819970797 357.42951027505205 139.76254774698333 356.4933425137963 133.5 C 355.47677905271416 126.69964062389278 353.997920952433 121.42023359446969 351.871391882097 117 C 349.31508991992314 111.68643435519809 346.0621808733711 107.85333874609658 334.05000234634156 96 C 325.96813395423067 88.025 317.18327979888096 78.8 314.5281042233422 75.5 C 311.8729286478034 72.2 307.51915661696484 65 304.8530552659231 59.5 C 301.9295158294527 53.468921363659064 298.2184726968973 47.61476235226194 295.50279913201456 44.75 C 293.02625960940657 42.1375 287.9625 38.073408070742346 284.25 35.71868460164965 C 280.5375 33.36396113255696 274.35 30.008468036664656 270.5 28.262033277444537 C 266.65 26.515598518224415 259 23.660472043074655 253.5 21.917307777111738 C 248 20.174143511148824 242.15 18.150544648978364 240.5 17.420421416732943 C 238.85 16.69029818448752 235.925 15.868051032311367 234 15.593205523008157 C 232.075 15.318360013704947 229.825 14.368119899051608 229 13.481560823778517 C 228.175 12.595001748505426 225.804135117271 11.561467305088994 223.73141137171334 11.184817616186448 L 219.96282274342667 10.5 L 219.98141137171334 5.25 L 220 0 L 110 0 Z " class="odd" fill="#000000"></path><path d="M 181 111.41440313588615 C 187.2224481694178 111.6664635307958 194.759087109015 112.70696423031772 199.5 113.96849430244325 C 203.9 115.1393093848944 211.1 117.7942047626299 215.5 119.86826180852213 C 219.9 121.94231885441437 226.4069058954499 125.63293782990735 229.9597908787776 128.06963730961763 C 233.51267586210525 130.50633678932795 239.75435346135163 135.875 243.83018554376952 140 C 247.90601762618738 144.125 253.9400012782253 151.55 257.2390381038538 156.5 C 260.53807492948226 161.45 264.9239667971519 168.875 266.9854644764529 173 C 269.0469621557538 177.125 272.35823855370444 184.55 274.34385647189856 189.5 C 276.35893657797374 194.52344707593275 277.9610471430885 200.267356855141 277.9698600386472 202.5 C 277.97854408216483 204.7 277.2949146995101 210.1 276.45068363274777 214.5 C 275.6064525659855 218.9 275.04718149403266 224.4900257681928 275.20785902840817 226.9222794848729 C 275.37178442659393 229.40369769025665 276.0486031825126 231.4883897838045 276.75 231.6722794848729 C 277.4375 231.8525257681928 279.2375 230.72820212032426 280.75 229.17378248960944 C 282.4527529411425 227.42383697029092 284.4306401376691 223.33005301293883 285.94379810565636 218.42378248960944 C 287.2878870637673 214.06570212032426 288.5307080913656 210.275 288.7056226114304 210 C 288.88053713149515 209.725 289.678702274526 210.4 290.4793229292768 211.5 C 291.27994358402765 212.6 293.49025763947185 216.425 295.3911319413751 220 C 297.29200624327825 223.575 300.2180810517315 231.225 301.8935204046044 237 C 303.56895975747733 242.775 305.6050945369882 252.225 306.41826435907296 258 C 307.23143418115774 263.775 308.2101047882655 273.225 308.59308793042345 279 C 308.9760710725814 284.775 308.9993012100281 290.7375 308.6447104580826 292.25 L 308 295 L 303 290.5 C 300.25 288.025 297.6625 286 297.25 286 C 296.8375 286 296.481542138539 290.8375 296.4589825300867 296.75 C 296.427133396952 305.0971306719164 295.7969801341212 309.95875001013206 293.6397915336151 318.5 C 291.80990312175646 325.74532587256385 290.6886304366859 333.25467412743615 290.3548194915279 340.5 C 289.98500946470006 348.52668155185967 290.24619780376844 352.85150838551834 291.3211040587087 356.5 C 292.1312997541991 359.25 294.02692640868463 364.425 295.53360773534325 368 C 297.0402890620018 371.575 298.74694923658166 377.65 299.3261859010762 381.5 C 300.08453325894004 386.5404912305119 300.0612462494329 390.59947368159436 299.24299716056703 396 C 298.59236411915333 400.2942435397632 297.2935759628647 404.5685854867456 296.2044284816958 406 C 295.13341585413394 407.40758074133856 293.0345177745611 408.64714657374174 291.401103057571 408.83674473553776 C 289.80549637590696 409.0219543400835 286.025 408.4253003208623 283 407.51084691504616 C 279.975 406.5963935092301 275.475 405.9948583782381 273 406.17410217950845 C 269.18824489102684 406.4501561089 268.46176417272073 406.8441224455134 268.25 408.75 C 268.1125 409.9875 268.675 412.35 269.5 414 C 270.325 415.65 270.8875 417.24237707459315 270.75 417.53861572131814 C 270.6125 417.8348543680432 266.45 416.3220973426917 261.5 414.17693344275926 C 256.55 412.0317695428269 245.075 407.01192278430466 236 403.02171842382097 C 226.925 399.0315140633373 217.1375 394.69427108868877 214.25 393.38340070237984 C 211.3625 392.0725303160709 208.4375 391.1460257524212 207.75 391.3245016720471 C 207.0625 391.502977591673 207.85 392.49621582697324 209.5 393.531697750492 C 211.15 394.5671796740108 216.06310217142186 398.35865392158956 220.4180048253819 401.9571960784449 C 224.7729074793419 405.5557382353002 230.33721481582825 410.975 232.78313223979595 414 C 235.22904966376365 417.025 238.9648943011848 422.425 241.08500921184296 426 C 243.2051241225011 429.575 246.04635647191824 435.65 247.39885887721437 439.5 C 248.75136128251046 443.35 250.33651510289283 449.425 250.9214229225085 453 C 251.50633074212416 456.575 251.97924297451215 463.1 251.97233899448176 467.5 C 251.96543501445137 471.9 251.5677242554228 478.2 251.0885373077516 481.5 C 250.6093503600804 484.8 249.71851677232027 489.3 249.10890711272907 491.5 C 248.49929745313787 493.7 247.60026858181433 496.175 247.11106517645453 497 C 246.36538185960703 498.25753159045723 245.27423151086347 497.89220365122645 240.36080221971838 494.7399451339684 C 235.96191082195458 491.9177934241464 232.13033245485704 490.48679788697456 225 489.0030823276237 C 219.66121890502063 487.8921618160292 211.55779261629624 487.02231824044134 206.5 487.0172425636751 C 200.37264531079254 487.01109354290776 192.87184922150092 487.9631384498733 183 490 C 175.025 491.64548409297834 167.4875 492.99363667646946 166.25 492.9958946299803 C 165.0125 492.9981525834911 162.5375 492.3504370039936 160.75 491.55652667554136 C 158.81537651800875 490.6972720942719 156.69053752737923 488.5724331036424 155.5 486.30652667554136 L 153.5 482.5 L 153.5 453 L 153.5 423.5 L 155.5 420.67106539449566 C 156.6 419.1151513614683 159.3 417.049968797818 161.5 416.0817708086062 C 163.7 415.11357281939445 167.92057716842203 413.2365933918714 170.8790603742712 411.91070541411057 C 173.83754358012038 410.58481743634974 176.8785229928149 408.6 177.63679240248126 407.5 C 178.39506181214762 406.4 179.01198464372558 404.2625 179.00773202821006 402.75 C 179.00331955572963 401.1806447168169 177.81935528318306 398.66217312657574 176.25 396.88388568591955 C 174.7375 395.1700228131753 171.925 392.84840152490733 170 391.7247272675463 C 168.075 390.60105301018524 165.25293582909472 388.51580445152143 163.72874628687717 387.0908415816267 C 161.41739139924158 384.9299588286599 160.9610196985557 384.7904183549819 160.97874628687717 386.25 C 160.99043582909474 387.2125 161.6284953076896 389.2375 162.3966562393102 390.75 C 163.1648171709308 392.2625 165.63981717093083 394.9625 167.8966562393102 396.75 C 170.15349530768958 398.5375 172 400.675 172 401.5 C 172 402.325 171.2125 403.2496701499298 170.25 403.5548225553995 C 169.2875 403.85997496086924 164.45 404.98722064545547 159.5 406.0598129655911 C 154.55 407.13240528572675 148.25 408.0008261893325 145.5 407.98963719582605 C 142.75 407.9784482023196 136.9 407.05888187915025 132.5 405.94615647767193 C 128.1 404.8334310761936 123.4875 403.2653400226581 122.25 402.46150969203745 C 121.0125 401.65767936141685 120 400.1 120 399 C 120 397.8507756645192 122.08333333333333 395.1921017128967 124.89749159553291 392.75 L 129.79498319106582 388.5 L 131.44327329128123 369.5 C 132.3498328463997 359.05 133.52096162840988 348.8125 134.0457816957483 346.75 C 134.79793315688678 343.7941061896405 135.8470466022832 342.5764766988584 139 341 C 141.2 339.9 143 338.55 143 338 C 143 337.45 140.975 334.75 138.5 332 C 136.025 329.25 134.14774757317508 326.4375 134.3283279403891 325.75 C 134.5089083076031 325.0625 135.6339083076031 324.3875 136.8283279403891 324.25 C 138.02274757317508 324.1125 139 323.325 139 322.5 C 139 321.675 138.2125 320.78639940461807 137.25 320.52533201026245 C 136.2875 320.26426461590677 133.84651331087017 317.90176461590676 131.825585135267 315.27533201026245 C 129.80465695966384 312.6488994046181 126.99655297173067 308.025 125.585354050971 305 C 124.17415513021135 301.975 123.0151418193412 298.9375 123.009768915704 298.25 C 123.0043960120668 297.5625 122.51394379225724 295.7625 121.91987509390498 294.25 L 120.83975018780995 291.5 L 119.41987509390498 294.25 C 118.18757607663142 296.6367045151009 117.75863800464435 296.8348656886822 116.17298723816414 295.75 C 115.16813021915442 295.0625 110.70429915939751 291.125 106.25336266092657 287 L 98.16075084552484 279.5 L 102.58037542276242 271.25 C 105.0111689402431 266.7125 107 262.1 107 261 C 107 259.76485029646096 106.33075599059664 258.99704307796566 105.25 258.99226797178994 C 104.2875 258.9880153562744 102.4875 259.6630153562744 101.25 260.49226797178994 C 100.0125 261.3215205873055 97.91911839186469 263.9125 96.5980408708104 266.25 C 95.27696334975612 268.5875 93.92696334975612 271.9625 93.5980408708104 273.75 C 93.26911839186468 275.5375 92.4375 276.9858588068714 91.75 276.96857512638087 C 91.0625 276.9512914458903 89.65000232609202 275.71379144589037 88.6111162802045 274.21857512638087 C 87.26847292061834 272.28617621652813 86.91151103771983 270.632439406696 87.37675218280216 268.5 C 87.73673797511842 266.85 90.5165207621071 260.55 93.55404726499924 254.5 L 99.07682272480315 243.5 L 97.44359201816263 222.5 C 96.54531512951036 210.95 95.74053001642964 192.725 95.65518065576106 182 L 95.5 162.5 L 98.183508697139 157 C 99.65943848056546 153.975 103.37193848056546 148.9125 106.433508697139 145.75 C 109.49507891371255 142.5875 112 139.55 112 139 C 112 138.4340794468064 111.0233212446856 138.28648456374194 109.75 138.65998186702842 C 108.5125 139.02297189389404 105.5875 139.92297189389404 103.25 140.65998186702842 L 99 142 L 99.02196200049092 139.75 C 99.03404110076092 138.5125 99.96098903642958 135.475 101.08184630197681 133 C 102.20270356752405 130.525 105.26479036688765 126.475 107.88648363389589 124 C 110.50817690090415 121.525 114.4187289652355 118.88383389005028 116.57659933241 118.1307419778895 C 119.12134681046258 117.24263082285182 121.9055696130411 117.0176926572463 124.5 117.49060814597247 C 127.29924437709403 118.00085734337304 129.46950226054733 119.31246012786708 131.72964054318072 121.85986616808296 C 133.70039145921572 124.08110317196183 135.55190578379535 127.74130681396481 136.47964054318072 131.25 C 137.68972685266212 135.82654684772692 138.40815761818195 137 140 137 C 141.4751272113068 137 142.85291828162642 135.25 145.25 130.33171756014593 C 147.3827096465517 125.95586824155886 150.21890823607436 122.14907288308112 153.5 119.25842324871795 C 156.7204330042652 116.42121412563863 160.63548039488177 114.16572534610233 164.5 112.9212390209194 C 169.34641487884886 111.3605542116348 172.5187739620145 111.07084363546964 181 111.41440313588615 Z " class="even" fill="#ffffff"></path><path d="M 141.09994767002857 155.5 C 140.73467446806947 153.8482333086637 139.82876479277888 164.1846886750855 139.08417709945468 178.5 C 138.34038579985474 192.8 137.51601113186425 215.075 137.2522333928091 228 C 136.9401956756472 243.2897189458218 137.19069960003677 254.6443629569193 137.96924200485404 260.5 C 138.62737448053392 265.45 139.61851589758322 270.4 140.17177848718586 271.5 C 141.0626108884944 273.2711583249162 141.34188011519913 273.3283687436872 142.61249848805548 272 C 143.4964070544811 271.0759172565106 144.45478097111967 266.46857920442585 145.10862246889928 260 C 145.74750780446647 253.67938497373333 145.90687694450108 241.53926671669842 145.50901055970218 229.5 C 145.14548923105534 218.5 144.2165038547268 202.3 143.4445986123054 193.5 C 142.672693369884 184.7 141.97863760996938 173.225 141.9022524791618 168 C 141.82586734835422 162.775 141.46483018424428 157.15 141.09994767002857 155.5 Z " class="odd" fill="#000000"></path><path d="M 121.10685921155314 197 C 120.68216311554445 168.45130289382172 120.24944656371726 157.840596908522 119.72030088239885 163 C 119.29724304087377 167.125 118.50138022902118 180.4 117.95171685605975 192.5 C 117.40205348309831 204.6 116.6834356203838 223.95 116.35478827224973 235.5 C 115.88639216400576 251.9613379080452 116.08480836682085 258.3370775134103 117.27284301496854 265 C 118.10642047159797 269.675 119.71620887072757 275.975 120.85015056858988 279 C 122.00486220464995 282.0804076661672 124.58097172166573 286.1666463941704 126.70593137326068 288.28847090882323 C 128.7926691179673 290.372129908676 132.525 292.81069894501377 135 293.7075132117961 C 138.2598746074962 294.8887261636845 141.01570881306023 295.15260961199095 145 294.6650579282876 C 148.025 294.29489325557563 152.0542089959888 292.9813242192378 153.953797768864 291.7460156253147 C 155.8533865417392 290.51070703139163 158.68920823531326 287.7 160.25562375458412 285.5 C 161.82203927385495 283.3 163.99779068266673 278.575 165.09062688527692 275 C 166.1834630878871 271.425 167.51014139431308 264.3375 168.0388008995568 259.25 C 168.7305901085479 252.5926381899266 168.59727840909403 243.90379668855098 167.56317216557477 228.25 C 166.7729168566409 216.2875 165.53541685664092 195.13615077792502 164.81317216557477 181.2470017287223 C 164.09092747450865 167.35785267951957 163.1625 155.99535267951956 162.75 155.9970017287223 C 162.3375 155.99865077792504 161.9912148515194 175.2375 161.9804774478209 198.75 C 161.96642628282837 229.5188921981557 161.57025117472247 244.44272823203193 160.5668781253176 252 C 159.8001359016393 257.775 158.22688691880444 264.975 157.07076927457348 268 C 155.91465163034252 271.025 153.73827132546901 275.2087258798353 152.23436859707678 277.29716862185626 C 150.5365765099746 279.65486203834456 148.17317896029465 281.49746780421077 146 282.15774890174384 C 144.075 282.7426253136611 141.15 282.9566663127894 139.5 282.6333955664734 C 137.85 282.3101248201574 135.28695256711376 280.797863694208 133.80433903803058 279.2728152865858 C 132.3217255089474 277.7477668789636 130.01456289772665 274.025 128.67731101309556 271 C 127.3400591284645 267.975 125.73801809161571 263.025 125.11721982009826 260 C 124.49642154858078 256.975 123.47903398947318 250.9 122.8563585776369 246.5 C 122.23368316580061 242.1 121.44640845106292 219.825 121.10685921155314 197 Z " class="odd" fill="#000000"></path><path d="M 183.74124020350808 168.24407768234454 C 183.60855809157863 168.10332040763404 182.94749908470587 169.22832040763404 182.27222018823522 170.74407768234454 C 181.5969412917646 172.25983495705503 180.16469834630794 177.55 179.0894580872204 182.5 C 178.01421782813284 187.45 176.6557564479979 196.675 176.07065502025387 203 C 175.4855535925098 209.325 175.00529653796647 230.5875 175.00341712126868 250.25 C 175.00152286559302 270.06774572240795 174.55434253768973 288.22828731155136 174 291 C 173.2 295 172.6 296 171 296 C 169.9 296 168.99310925146733 295.4375 168.98468722548293 294.75 C 168.97626519949853 294.0625 168.52626519949854 292.825 167.98468722548293 292 L 167 290.5 L 166.01531277451707 292 C 165.47373480050146 292.825 165.0173422384006 294.625 165.00110708095957 296 C 164.98487192351857 297.375 163.86480270925352 303 162.5120643825928 308.5 C 161.15932605593207 314 160.04202095822657 319.625 160.0291641654695 321 C 160.01070219680372 322.9744587468307 161.0037081743291 324.0255412531693 164.75289408931923 326 C 168.4733103168555 327.9593075747296 169.55406924252705 329.0947616677974 169.75 331.25 C 169.97222222222223 333.69444444444446 169.55555555555554 334.1111111111111 166 335 C 162.73196423317924 335.8170089417052 161.70431444920385 336.68621646860555 160.3841530097073 339.75 C 159.22188056810788 342.447360382624 158.93722637484586 345.0438714388181 159.37008019018575 349 C 159.7010559841099 352.025 160.3156871297416 354.86232759284496 160.73592718047846 355.3051724285444 C 161.1561672312153 355.7480172642438 162.47697152088003 354.1730172642438 163.67104782417783 351.8051724285444 C 165.15422117490618 348.864050199362 167.05526029285366 346.9134162610532 169.67104782417783 345.64864281305245 C 172.0860888749503 344.4809333717192 174.4231710531525 344.03947063360414 176 344.45313647485125 C 177.375 344.8138544416618 185.7 348.6727623390217 194.5 353.02848735787325 C 203.3 357.38421237672475 215.225 362.5116987027834 221 364.4229014157813 C 226.775 366.3341041287792 234.425 368.3695709147123 238 368.9461609400771 C 241.5796733829496 369.5235047069785 246.64085533636154 369.65877975318284 249.26506963471263 369.24725322037017 C 251.88585793380457 368.83626394916655 254.02841110678355 368.275 254.0262989079992 368 C 254.02418670921486 367.725 250.9799053735942 367.136312622672 247.26122927328657 366.69180582816 C 243.54255317297896 366.247299033648 238.475 364.97432710819936 236 363.86297932716303 C 233.525 362.7516315461267 227.36379891885574 358.8403189234547 222.30844204190163 355.17117349900303 C 217.2530851649475 351.5020280745514 213.0905851649475 348.1625 213.05844204190163 347.75 C 213.02629891885573 347.3375 217.1625 348.17272274681693 222.25 349.60605054848213 C 227.3375 351.03937835014733 238.25 353.97071573676214 246.5 356.12013362984845 C 254.75 358.26955152293476 262.5125 360.0218287761178 263.75 360.0140830813663 C 264.9875 360.00633738661486 265.775 359.55 265.5 359 C 265.225 358.45 262.4125 357.0437329859614 259.25 355.87496219102536 C 256.0875 354.7061913960893 244.5 350.6355195270174 233.5 346.8290247041989 L 213.5 339.9081250263471 L 224.5 340.3591003967041 C 230.55918430176402 340.6075133862086 241.11456329344998 341.962762152346 248 343.3763625934773 C 254.875 344.7878203480062 262.975 346.7909194507291 266 347.82769393286145 C 269.025 348.8644684149938 273.4125 350.6773722955177 275.75 351.8563692229147 C 278.0875 353.03536615031163 280.3375 353.7710890651964 280.75 353.49130903376977 C 281.1625 353.2115290023431 280.267019691319 350.17402900234316 278.76004375848663 346.74130903376977 C 277.2530678256543 343.3085890651964 274.877093055225 337.125 273.48009982419927 333 C 272.08310659317357 328.875 270.4373958185818 321.45 269.82296476955094 316.5 C 268.9907054015231 309.79512419947633 268.9983415179909 306.03367065033456 269.85290870383824 301.75 C 270.48380891672724 298.5875 271.45 295.775 272 295.5 C 272.55 295.225 274.351249540838 294.8875 276.00277675741785 294.75 C 277.6543039739977 294.6125 279.00430397399765 293.9375 279.00277675741785 293.25 C 279.00124954083805 292.5625 277.3125 291.6625 275.25 291.25 C 273.1875 290.8375 266.775 290.58750617296056 261 290.69445816213454 C 253.95623518855405 290.8249074535385 246.7145995553932 291.740818357952 239 293.4769842263879 C 232.675 294.9004215725532 223.675 297.20489548827896 219 298.5980373724451 C 214.325 299.9911792566112 204.875 303.1488760764745 198 305.61514141658574 C 191.125 308.08140675669694 185.05 310.1894266680107 184.5 310.299630108394 C 183.95 310.40983354877727 183.5 309.8874357975852 183.5 309.13874621685613 C 183.5 308.390056636127 185.075 307.2043297340491 187 306.50379754557207 C 188.925 305.803265357095 195.225 303.4173914959082 201 301.2018556318237 C 206.775 298.9863197677392 217.125 294.93250200580235 224 292.1933717164085 C 230.875 289.45424142701467 245.5 283.5321412495914 256.5 279.03314909991235 C 267.5 274.5341569502333 277.7375 270.436201614248 279.25 269.9265816866116 C 280.7625 269.4169617589752 282 268.55 282 268 C 282 267.45 280.7625 266.99551488540834 279.25 266.9900330786852 C 277.7375 266.98455127196206 271.775 267.7381345760587 266 268.6646626433444 L 255.5 270.34925912931834 L 248.5 268.6720145765396 C 244.65 267.7495300725113 239.475 266.9848064833591 237 266.972628822868 C 234.525 266.9604511623769 230.25 267.8975328965414 227.5 269.05503267656684 C 223.70948759937897 270.650493501986 222.2581024801242 270.87332600425026 221.5 269.97621823638025 C 220.80008745288427 269.14797007823637 221.08047521450698 268.4488296718065 222.4343534990476 267.64642937080094 C 223.4982479235238 267.01589321686043 226.19824792352378 264.8287780604303 228.4343534990476 262.7861734676229 C 231.7637822448776 259.74485622299136 233.26960096224235 259.0657965504246 236.75 259.0361734676229 C 239.40336090040094 259.0135896406529 243.72367846402193 260.19374832967117 248.25 262.1775686831022 C 252.2375 263.9252314588084 257.975 265.57390160071736 261 265.84128010956647 C 265.50277199201037 266.2392782784628 267.49722800798963 265.8554148197397 272 263.72416245336154 C 275.025 262.2923692335997 278.625 259.9924560305759 280 258.61324422441976 L 282.5 256.10558639504495 L 275.5 256.6879531621653 C 269.8592228766552 257.15723903893223 267.62621386500734 256.8919665399263 264 255.32179936580545 C 261.525 254.25011305589135 256.9125 251.0392910718021 253.75 248.18663940116264 C 249.23159393660495 244.11092758918753 247.51807193785024 243.13483442368047 245.75 243.62950775667167 C 244.5125 243.97573702284112 241.475 245.28763113012587 239 246.54482799508224 C 236.525 247.8020248600386 229.775 252.20237730022788 224 256.3233889732806 C 218.225 260.4444006463333 213.1625 263.63250653904856 212.75 263.40806873487 C 212.3375 263.1836309306915 211.72391662801823 260.4125 211.3864813955961 257.25 C 210.98613965365024 253.49792956616983 211.24584511884672 250.1101359539688 212.1339083570693 247.5 C 212.88242841830169 245.3 215.29601179028344 241.79328794797644 217.4974269614732 239.70730655105876 L 221.5 235.91461310211753 L 219 235.9429925560232 C 217.625 235.9586012556713 214.3625 237.32781330769487 211.75 238.98568600496444 C 209.04841054971914 240.70009419208486 205.70715582034182 244.04841054971914 204.00206101056338 246.75 C 202.35319456637325 249.3625 200.55319456637324 253.6375 200.00206101056338 256.25 C 199.45092745475353 258.8625 198.9983178728031 262.6875 198.9962619395625 264.75 C 198.99420600632183 266.8125 198.09420600632183 269.9625 196.9962619395625 271.75 C 195.89831787280312 273.5375 194.55 274.775 194 274.5 C 193.45 274.225 192.83723196588946 272.5375 192.63829325753215 270.75 C 192.43935454917482 268.9625 190.63307905135835 258.5 188.62434770682887 247.5 C 186.5547701985714 236.16680073827146 184.24356227810347 218.83319926172854 183.29087347507016 207.5 C 181.89604640988367 190.90711781740356 181.8117518882271 185.8816190367333 182.7960592292815 178 C 183.44859087703554 172.775 183.8739223154375 168.38483495705503 183.74124020350808 168.24407768234454 Z " class="odd" fill="#000000"></path><path d="M 68.75 272.97222222222223 C 68.8875 272.9875 70.18729604626567 273.7875 71.63843565836815 274.75 C 73.08957527047063 275.7125 77.46703256674779 280.775 81.36611853898404 286 C 85.2652045112203 291.225 90.49040846495464 297.4344742220105 92.9776828806159 299.79883160446786 C 95.67640207897631 302.3641845143222 99.86814292608497 304.9852714867166 103.3727273004186 306.29883160446786 C 107.55132133910251 307.8650186016156 110.17486444848765 309.6538988106013 112.46726170943839 312.5 C 114.23925561916904 314.7 116.20902833398067 317.5125 116.84453440901979 318.75 C 117.4800404840589 319.9875 118.00689412107117 321.7875 118.01532026904705 322.75 C 118.02852173130371 324.25797344865134 117.44074296374271 324.3994212650013 113.76532026904705 323.7727542277204 C 111.41939412107118 323.3727690529666 107.09738417717364 321.5727690529666 104.16085372705254 319.7727542277204 C 101.22432327693143 317.9727394024742 95.37432327693142 312.9 91.16085372705254 308.5 C 86.94738417717363 304.1 80.74747934086314 296.45 77.38328742414032 291.5 C 74.01909550741749 286.55 70.32169704305919 280.7 69.16684639223297 278.5 C 68.01199574140676 276.3 67.38951640054363 274.15 67.78355896809266 273.72222222222223 C 68.1776015356417 273.2944444444445 68.6125 272.95694444444445 68.75 272.97222222222223 Z " class="even" fill="#ffffff"></path><path d="M 258.5 296.0609298913434 L 262.5 295.98649922027226 L 261.8311212384382 304.2432496101361 C 261.4632379195792 308.7844623245613 260.3382379195792 314.98791666448847 259.3311212384382 318.0287036988632 C 258.3240045572972 321.06949073323796 255.8153697456372 325.794490733238 253.75637721252713 328.5287036988632 C 251.69738467941704 331.26291666448844 248.77238467941706 334.2659719718122 247.25637721252713 335.20215993736036 C 245.7403697456372 336.13834790290855 242.475 337.1876000447216 240 337.5338313636115 C 237.18570329138097 337.92752738832775 228.8508370173306 337.19624684794763 217.75 335.5816714262511 C 207.9875 334.161752141813 197.075 333 193.5 333 L 187 333 L 187.25 330.7917475756424 C 187.39573128517958 329.5045017204322 189.28436023413917 327.31485870920324 191.7782732989762 325.5417475756424 L 196.05654659795238 322.5 L 200.7782732989762 323.60058214463857 L 205.5 324.7011642892771 L 211.88299414417622 319.10058214463857 L 218.26598828835245 313.5 L 220.88299414417622 316.8127467884829 C 222.81921613510823 319.26372073948727 224.37466529503746 320.1742053384494 226.86230677171346 320.3127467884829 C 229.31650265190962 320.4494255901095 230.5210648338153 319.95982865147397 231.32223299768833 318.5 C 231.9259236975321 317.4 233.1955897072554 315.375 234.14371301929566 314 C 235.66607996853446 311.7922127547956 235.6999852711752 311.23700852068396 234.43378679332076 309.25 C 233.64520405699434 308.0125 233.225 306.1 233.5 305 C 233.775 303.9 234.9 302.775 236 302.5 C 237.1 302.225 239.125 302.675 240.5 303.5 C 241.875 304.325 243.47088798552818 306.2375 244.04641774561821 307.75 C 244.62194750570822 309.2625 244.79836398812603 311.85 244.43845437321332 313.5 C 244.0785447583006 315.15 242.82015677277244 317.55525630999404 241.64203662759513 318.84501402220894 C 240.4639164824178 320.1347717344238 238.375 321.7834016271992 237 322.50863600615423 C 235.625 323.2338703851092 230.45 324.37138055590157 225.5 325.0364363856927 C 219.5002640582263 325.84252918676026 217.00004400970437 326.5329450319188 218 327.10750162723036 C 218.825 327.5815316802849 223.1 327.96985729187713 227.5 327.9704474307687 C 233.79380498358609 327.9712915714725 236.44570528930663 327.49469004555215 239.93421897360514 325.73576020528577 C 242.373039409088 324.5060920923786 245.5065318332581 321.925 246.89753547176093 320 C 249.02797417661918 317.05170109312854 249.51122981763484 315.04729777209457 249.9633164981558 307.28403530281884 C 250.42485315708146 299.35849717746646 250.7800415614056 297.93276082107553 252.5 297.1017155840261 C 253.6 296.57022032213973 256.3 296.10186676043253 258.5 296.0609298913434 Z " class="even" fill="#ffffff"></path><path d="M 358.5 300.2937205754672 C 365.2253214787562 300.54484713670115 368.5109682316639 301.16063733167084 371.5 302.7301579458333 C 373.7 303.88536324934853 377.1604396577627 306.55616169933774 379.1898659061394 308.665265612476 C 381.2192921545161 310.7743695256142 383.7529297745795 314.525 384.8201717285026 317 C 385.8874136824257 319.475 387.3325393956481 324.425 388.0315622023301 328 C 388.77409990256484 331.79754745190536 389.05274874542084 337.20245254809464 388.7017747023946 341 C 388.37136877074795 344.575 387.0857502093183 350.425 385.84484456588416 354 C 384.290314938099 358.4785382746365 382.3240823755752 361.74397644637753 379.52243366092046 364.5 C 377.28601330662445 366.7 372.766066497069 369.9658291747381 369.4781074174639 371.7573981660846 C 366.1901483378588 373.54896715743115 360.8 377.1792699800058 357.5 379.8247377718061 C 354.181574932318 382.48497614636835 347.477637601523 389.86479146140346 342.5 396.337008734876 C 337.55 402.7732899727642 331.57136382212946 410.6179871501895 329.21414182695435 413.7696691291545 C 326.09501115653853 417.94004762728 325.11386694623496 420.04445455520084 325.6100055370428 421.5 C 325.98495257276653 422.6 326.23286651602274 424.85 326.16092541094554 426.5 C 326.0889843058683 428.15 325.3483456363285 430.5125 324.5150617008571 431.75 C 323.6817777653857 432.9875 321.875 434.45 320.5 435 C 319.125 435.55 316.65 436 315 436 C 312.9047619047619 436 310.94444444444446 434.94444444444446 308.5 432.5 C 305.8333333333333 429.8333333333333 305 428.1666666666667 305 425.5 C 305 423.05555555555554 305.9047619047619 420.94444444444446 308 418.5 C 309.65 416.575 311.9 415 313 415 C 314.1 415 315.5625 414.41666883821784 316.25 413.70370852937305 C 316.9375 412.99074822052825 318.08339659133725 408.8282482205282 318.79643686963834 404.45370852937305 C 319.5094771479394 400.07916883821787 319.8406198806875 396.275 319.53230960907854 396 C 319.2239993374696 395.725 317.62810274613236 396.5125 315.9858727394402 397.75 C 314.3436427327481 398.9875 312.7690201980614 399.8875 312.4867115512476 399.75 C 312.20440290443383 399.6125 311.6987304614732 395.675 311.3629950113351 391 C 310.9233588481986 384.8782185145541 311.20686724224646 380.4715195022921 312.3762834600875 375.25 C 313.2693275570394 371.2625 314.00689074853267 366.3125 314.01531277451704 364.25 C 314.0237348005015 362.1875 314.36123480050145 359.978731208538 314.76531277451704 359.34162490786224 C 315.1693907485327 358.70451860718646 316.8046121457085 358.02951860718645 318.3991381015745 357.84162490786224 C 319.9936640574405 357.65373120853803 321.79366405744054 356.7131024358313 322.3991381015745 355.7513387462917 C 323.2484223602081 354.40229534804075 322.9523792960262 352.45980833737235 321.10370290343633 347.2513387462917 C 319.16356580800556 341.78518733948846 318.830435161089 339.4054278744171 319.35370290343633 334.75 C 319.70916630654636 331.5875 321.1847897889682 326.1875 322.6328661977071 322.75 C 324.08094260644594 319.3125 326.668442606446 314.7848948156657 328.3828661977071 312.6886551459238 C 330.09728978896817 310.59241547618194 333.075 307.7906078409274 335 306.46241595646933 C 336.925 305.13422407201125 340.975 303.127301965295 344 302.00258905265537 C 348.39879206809815 300.3670921141408 351.30197661583935 300.02494311020325 358.5 300.2937205754672 Z " class="even" fill="#ffffff"></path><path d="M 51.5 302.0185399706935 C 52.733455725247445 302.4862590569072 53.3695193285237 303.4904029573619 53.159561291437676 304.63846404690895 C 52.9723200017284 305.66230882110904 52.61283033143187 308.3 52.360695357445394 310.5 C 52.07614157417953 312.98286984263626 52.39490530172347 315.0303629894152 53.20113406600772 315.8983322046324 C 53.91551032970347 316.6674149171803 56.1875 318.3549149171803 58.25 319.6483322046324 C 60.3125 320.9417494920846 62.7875 322.0068941210712 63.75 322.01532026904704 C 65.22275700952159 322.0282134311195 65.39753241015909 321.4341213086658 64.85320895972094 318.26532026904704 C 64.49747388756745 316.1943941210712 64.60997388756745 313.7125 65.10320895972094 312.75 C 65.59644403187443 311.7875 67.125 311 68.5 311 C 69.875 311 73.475 311.9 76.5 313 C 79.525 314.1 82.67035700695101 316.0125 83.48968223766892 317.25 C 84.30900746838682 318.4875 84.64650746838682 319.8426822379045 84.23968223766892 320.26151608423226 C 83.83285700695102 320.68034993056 79.8683517905414 321.35534993056 75.42967064564753 321.76151608423226 C 70.99098950075367 322.1676822379045 66.60348950075368 323.0625 65.67967064564753 323.75 C 64.30782632733977 324.77091764378224 62.94622116139837 324.62925343380795 58.25 322.9770017412447 C 55.0875 321.8643526989293 50.79790534940962 319.7268526989293 48.71756744313248 318.2270017412447 C 46.63722953685535 316.7271507835601 44.45883899114876 314.375 43.8766995637845 313 C 43.12746446249286 311.230323843653 43.13693897032925 309.4045142345205 43.90913212065202 306.75 C 44.59051363379753 304.4076625614617 45.84459753687702 302.67345078575926 47.25 302.1300759237845 C 48.4875 301.651617681866 50.4 301.601426502975 51.5 302.0185399706935 Z " class="even" fill="#ffffff"></path><path d="M 355.5 312.25086839511926 C 349.4016096788947 311.92318557480394 347.7271917038045 312.2445013621603 342.5 314.74552940436183 C 339.0755947618348 316.38398730179836 335.3666787900821 319.09378349831144 333.85986135696936 321.0581595665292 C 332.4077851033025 322.9511718049381 329.94715784428143 326.975 328.391800781367 330 C 326.66863563130084 333.351368443451 325.3922678890918 337.648631556549 325.12459447009735 341 C 324.7487772879381 345.70536764362663 325.1693766470404 347.5113502717479 328.0357476046365 353.5 C 329.878488236917 357.35 331.41179346635215 362.15124618798075 331.4430925589369 364.16943597329055 C 331.483217867272 366.7567470014033 330.7627443610855 368.6279495549323 329 370.5145978640966 C 327.625 371.98624711873015 324.53584449246034 374.3850009307494 322.1352099832452 375.8451618908061 L 317.77041996649035 378.5 L 318.4082362990346 381.5 C 318.75903528193396 383.15 320.3959365013001 385.85 322.0457945642927 387.5 C 324.6662373808575 390.1206682528129 325.8961540216825 390.5490994142323 331.7727682485032 390.8883098205964 L 338.5 391.2766196411929 L 342 388.2210845348751 L 345.5 385.16554942855726 L 345.5 375.8327747142786 C 345.5 370.6997486214254 345.1087300174136 360.875 344.63051114980806 354 C 344.054270484114 345.71581289445373 344.1145572521408 340.1509398737748 344.80926305820674 337.5 C 345.6423819680062 334.3208871751192 346.64170720463335 333.1134898737821 349.6787519083986 331.61662241568456 C 351.9155406677138 330.51417690333955 355.85477494548894 329.6848879933791 359.17902191192053 329.61662241568456 C 363.5291881113429 329.52728891800234 365.5181351045787 329.9947167341983 367.67902191192053 331.61423042191996 C 369.2305598603642 332.777057153976 370.7926439885922 334.80205715397597 371.1503199746494 336.11423042191996 C 371.5079959607066 337.426403689864 371.84549596070656 341.9875 371.9003199746494 346.25 L 372 354 L 366.5595567533236 359.75 C 363.3742525166565 363.11654543212535 360.4641006865835 367.3653122705106 359.53891820268353 370 C 358.6698107855035 372.475 357.9680102465079 374.6125 357.97936144935994 374.75 C 357.990712652212 374.8875 358.3375 375.0087349100648 358.75 375.01941091125514 C 359.1625 375.0300869124454 362.95228042153934 371.0925869124454 367.1717342700875 366.26941091125514 C 371.77762919385395 361.0045015988903 375.48243536068026 355.70167427953845 376.44237282072754 353 C 377.35839868605484 350.4219117153478 378.03246255188833 345.40358668082854 378.02063855064006 341.25 C 378.009287347788 337.2625 377.5553006970218 331.8625 377.0117793267151 329.25 C 376.4682579564084 326.6375 374.9883422362225 322.925 373.723077726302 321 C 372.45781321638145 319.075 369.41501251935966 316.40357435077897 366.9612983995869 315.0634985572866 C 363.77365730202655 313.3225945787996 360.5015680827332 312.5196160234364 355.5 312.25086839511926 Z " class="odd" fill="#000000"></path><path d="M 123 413.03551901445314 C 124.925 413.0067723659388 128.52136786696738 413.99952059511276 130.9919285932608 415.2416261903953 C 133.46248931955427 416.4837317856779 136.51328440067067 419.075 137.7714732179639 421 C 139.02966203525713 422.925 140.23682157600595 425.85 140.4540499751835 427.5 C 140.67127837436104 429.15 141.83913051324512 437.025 143.04927695048144 445 C 144.5932896534904 455.1752159305753 145.12006850988155 462.3334792178989 144.81544453134939 469 C 144.4865000479172 476.19876106117783 143.8506867203975 479.5295016305257 142.19067293134836 482.75 C 140.98580281910677 485.0875 138.7625 487.91633317054266 137.25 489.0362959345393 C 135.7375 490.1562586985359 132.925 491.3552454083458 131 491.700710845228 C 129.075 492.0461762821102 123.675 491.85075537666273 119 491.2664421664558 C 114.325 490.6821289562489 105.775 488.7438136731649 100 486.9590748707135 L 89.5 483.71409522989285 L 80 484.2088907490239 C 73.91936778504898 484.5255928093861 69.24023292129775 485.32373292287866 67 486.42635653651024 L 63.5 488.14902680486557 L 64.28655785284285 484.8245134024328 C 64.71916467190641 482.99603103109473 66.18166467190642 479.5875 67.53655785284285 477.25 C 68.89145103377928 474.9125 71.20375110320467 472.2125 72.67500245156592 471.25 L 75.35000490313185 469.5 L 84.42500245156592 471.19575635071556 C 89.41625110320467 472.12842234360915 96.425 473.5431838212584 100 474.33967074549173 C 103.575 475.136157669725 106.725 475.6174085380231 107 475.4091171194874 C 107.275 475.2008257009517 106.2625 473.2235642233025 104.75 471.0152027247113 C 102.79531044266324 468.16121187504467 100.25629983486174 466.20468955733674 95.97068717207745 464.25 C 90.58927544436888 461.7955109606085 89.87756627730371 461.12389514104376 89.34758187202671 458 C 89.02099601235622 456.075 89.26484536427122 452.025 89.88946932072673 449 C 90.51409327718225 445.975 92.53805436473326 440.35 94.38716062639566 436.5 C 96.23626688805805 432.65 99.15560830870818 427.5875 100.87458600561818 425.25 C 102.59356370252819 422.9125 105.6875 419.87333541435174 107.75 418.49630092078166 C 109.8125 417.11926642721164 113.3 415.33901819803765 115.5 414.5401937448395 C 117.7 413.7413692916414 121.075 413.0642656629675 123 413.03551901445314 Z " class="even" fill="#ffffff"></path><path d="M 333.25 423.56598300562507 C 333.6625 423.8046923525313 335.40512153687166 426.1375 337.1224923041592 428.75 C 338.83986307144676 431.3625 341.5989115402018 436.2 343.25371112361483 439.5 C 344.9085107070278 442.8 346.8735182392542 447.525 347.62039452856243 450 C 348.36727081787063 452.475 348.9832223491156 456.1875 348.9891757091068 458.25 C 348.9951290690981 460.3125 348.29972570383916 463.6875 347.4438348974203 465.75 C 346.5879440910015 467.8125 344.9004440910015 470.5720552998926 343.6938348974203 471.8823451108724 C 342.48722570383916 473.19263492185223 339.25 475.32573890978546 336.5 476.62257619516845 C 333.75 477.9194134805514 329.7 478.9749752804379 327.5 478.9682690838051 C 325.3 478.9615628871723 321.7 478.1429100022672 319.5 477.1490404506826 C 317.3 476.15517089909804 314.2062125825481 473.80255379931896 312.62491685010684 471.92100245117354 C 311.0436211176656 470.03945110302806 308.73358260417393 466.475 307.49149793123644 464 C 306.24941325829894 461.525 304.0557006757508 455.7875 302.61658108112954 451.25 C 301.1774614865083 446.7125 300 441.875 300 440.5 C 300 438.94444444444446 300.56666666666666 438 301.5 438 C 302.3928989910597 438 304.5988510929812 441.33905554917146 306.95037498563573 446.25 C 309.1230812277354 450.7875 312.83558122773536 456.69856406923236 315.20037498563573 459.38569793162753 C 317.5651687435361 462.07283179402265 321.1875 465.1103317940226 323.25 466.13569793162753 C 325.3125 467.1610640692324 328.6875 468.01556343082706 330.75 468.03458540183794 C 332.9991215387251 468.055328541091 335.60064420493495 467.25486002841103 337.25 466.03458540183794 C 338.7625 464.91556343082704 340.496585293488 462.3125 341.1035228744178 460.25 C 341.92950727212383 457.44313340647176 341.8953110350058 454.9909865496452 340.96755495268724 450.5 C 340.28583501480557 447.2 337.42674972131755 440.0745965004493 334.61403207826936 434.66577000099846 C 330.34790441126347 426.4620512834894 329.7486993819025 424.69064566833146 331 423.9817530066235 C 331.825 423.5143701591681 332.8375 423.3272736587188 333.25 423.56598300562507 Z " class="even" fill="#ffffff"></path><path d="M 250.25 433.97685185185185 C 250.6625 433.9895833333333 252.4625 435.09116150486415 254.25 436.42480334414256 C 256.0375 437.758445183421 259.525 439.3702987484176 262 440.0067001552462 C 265.17703781005974 440.8236178650925 268.4109453854693 440.87848607360013 273 440.1933320485548 C 276.575 439.65957818304594 279.90685566516095 439.5102246180493 280.4041237003577 439.86143523745113 C 280.918966206651 440.2250583596536 281.01414766548186 444.8056187323737 280.6251870706816 450.5 C 280.249503889163 456 279.6176482240021 462.88126906738717 279.2210633703239 465.7917090386381 C 278.70502396893914 469.57879693824174 278.09739272089826 471.00047481966743 277.0840418411166 470.7917090386381 C 276.3052648537307 470.63126906738717 275.1802648537307 468.475 274.5840418411166 466 C 273.6579676589527 462.1557444909644 273.1356975050198 461.5 271 461.5 C 268.9234784575066 461.5 267.8738407205689 462.68573968101845 264.80347619618084 468.5 C 262.65326458758756 472.5717934088784 260.492510857298 478.6373642047732 259.6381042726672 483 C 258.83023780683527 487.125 257.29132093945543 492.525 256.2182890118232 495 C 255.14525708419086 497.475 251.74943140799405 503.775 248.6720097313858 509 C 244.87072629732032 515.4540085923104 242.74377111726116 520.3436263783384 242.038348796049 524.25 C 241.46725695822207 527.4125 240.55 530 240 530 C 239.45 530 238.26704107953316 528.3125 237.37120239896257 526.25 C 236.03952019512238 523.1840522964793 235.85710624939458 520.447843110562 236.37120239896257 511.25 C 236.71704107953315 505.0625 236.6625 499.99791739645633 236.25 499.9953719921252 C 235.8375 499.992826587794 234.42122306922084 503.930326587794 233.10271793160186 508.7453719921252 C 231.59468523857112 514.2525525718471 227.58273777092919 523.620520770994 222.28711323178456 534 C 217.14024286299093 544.0879195064514 211.66328263384278 553.2202765730207 208.19342805863855 557.5 C 205.07197866068879 561.35 197.56400077560656 569.6206877142424 191.50903275845585 575.8793060316499 C 182.93909839464862 584.7374780379065 177.7305714223904 589.0789681689715 168 595.4749103657234 C 161.125 599.9938744320564 150.775 606.5475322669623 145 610.0385944432921 C 137.0304141386322 614.8563121509344 133.5604487544583 616.3997191359302 130.60131482923165 616.4429901092187 C 128.45703798530906 616.4743455491484 126.53361976331604 616.05 126.32705211369161 615.5 C 126.12048446406718 614.95 133.72489279091295 608.434803390292 143.22573728445997 601.0217853117599 C 152.726581778007 593.6087672332278 165 583.9811441936722 170.5 579.6270674460807 C 176 575.2729906984893 183.5074030451625 569.1881873081973 187.18311787813892 566.1052821343208 C 190.85883271111533 563.0223769604444 193.89633271111532 560.1625 193.93311787813892 559.75 C 193.9699030451625 559.3375 192.9875 559.2752273389302 191.75 559.6116163087338 C 190.5125 559.9480052785374 186.575 561.5015749856716 183 563.0639934356986 C 179.425 564.6264118857256 174.925 566.2433994449733 173 566.6572991229156 C 170.3789355540954 567.2208615800719 169.68834333302044 567.1072586255722 170.25 566.2049219959508 C 170.6625 565.5422148981778 173.24954249431647 563.7625 175.99898332070327 562.25 C 178.74842414709008 560.7375 181.00343084654114 559.05 181.01010931948343 558.5 C 181.01772832997867 557.8725428239978 179.06225726056607 557.7560353692845 175.76112599878016 558.1872642627684 C 172.86750669945107 558.565259607291 163.975 559.5855757985338 156 560.4546335766413 C 148.025 561.3236913547488 138.125 562.4508380653276 134 562.9594040445942 C 129.875 563.4679700238607 125.39978432329919 564.247653832618 124.0550762739982 564.6920347307213 L 121.61015254799639 565.5 L 122.8050762739982 563.25 C 123.59431376896868 561.7638931255258 125.7824172928936 560.5033582746829 129.25 559.5371724857528 C 132.1375 558.7326173529169 140.8 557.3543845202382 148.5 556.474432857578 C 156.2 555.5944811949176 162.6125 554.6777535763289 162.75 554.4372603718251 C 162.8875 554.1967671673214 162.821448062458 553.6625 162.60321791657333 553.25 C 162.38498777068867 552.8375 157.54748777068866 552.1665465083802 151.85321791657333 551.7589922408448 C 146.158948062458 551.3514379733094 132.95 549.2470751509406 122.5 547.0826304133585 C 112.05 544.9181856757764 96.075 541.3481593891167 87 539.149238665226 C 77.925 536.9503179413351 67.0125 534.442180763704 62.75 533.5756004927123 C 58.4875 532.7090202217205 53.875 532 52.5 532 C 50.30952380952381 532 50 532.4333333333333 50 535.5 C 50 537.425 49.6625 539.0075000000003 49.25 539.0166666666673 C 48.8375 539.0258333333344 47.930000000000305 538.4633333333344 47.233333333334016 537.7666666666673 C 46.53666666666773 537.0700000000003 45.959499035671975 535.6 45.950738597787904 534.5 C 45.94197815990383 533.4 46.89070296551524 531.6 48.05901594359102 530.5 L 50.18322135827427 528.5 L 59.84161067913713 529.1798643798458 C 65.15372480561172 529.5537897887609 76.7 531.4662197146954 85.5 533.4297086597003 C 94.3 535.393197604705 105.1 537.8480747076871 109.5 538.8849911107716 C 113.9 539.921907513856 121.325 541.7475549189762 126 542.9419853443721 C 130.675 544.136415769768 134.725 544.8674352980099 135 544.5664731849099 C 135.275 544.26551107181 130.775 539.2810186007408 125 533.4898232492008 C 119.225 527.6986278976606 113.48980551426996 521.2817922955059 112.25512336504435 519.2301885777457 C 111.02044121581875 517.1785848599856 110.00794121581875 514.9375 110.00512336504435 514.25 C 110.00230551426996 513.5625 111.4625 512.7435291953756 113.25 512.4300648786124 C 115.0375 512.1166005618492 119.425 510.91112242190746 123 509.7512245676307 C 126.575 508.5913267133539 132.2 506.1135502311956 135.5 504.2450546072788 C 138.8 502.37655898336203 142.52407138824196 499.8695371233038 143.77571419609325 498.67389491826054 C 145.02735700394453 497.4782527132172 146.03985700394452 495.9375 146.02571419609325 495.25 C 146.01157138824198 494.5625 146.3375 493.988428611758 146.75 493.97428580390675 C 147.1625 493.9601429960555 148.625 495.1289360775625 150 496.5716037628114 C 151.375 498.0142714480602 154.3 500.12198162838206 156.5 501.2554041635267 C 158.9659131410568 502.5258230379735 163.18465200315057 503.4934655616673 167.5 503.77844910860983 C 173.2213217263856 504.1562824977073 176.7833540600257 503.6385105779255 187 500.94395702935685 C 193.875 499.1307342011166 201.4125 497.50157089432213 203.75 497.32359412536914 C 207.33796973803675 497.05040684790305 208.17141934341035 497.35048660927464 209.10045152216077 499.25 C 209.75727807621803 500.5929576104607 209.91317162553415 503.11251980362545 209.48715945335175 505.5 C 209.09460047831834 507.7 207.63710501995382 513.1 206.24828065698608 517.5 C 204.85945629401837 521.9 202.963351195155 526.85 202.03471377062306 528.5 C 201.1060763460911 530.15 198.70382546662293 534.425 196.696378482916 538 C 194.68893149920908 541.575 193.0360180290365 545.2875 193.02323743808807 546.25 C 193.01045684713964 547.2125 193.45 548 194 548 C 194.55 548 196.6875 546.9368914406041 198.75 545.6375365346759 C 200.8125 544.3381816287476 204.75 541.2577274280438 207.5 538.7920827553341 C 210.25 536.3264380826245 215.04890884741076 530.9770466420204 218.16424188313505 526.9045462206583 C 221.27957491885934 522.8320457992962 225.3063891220692 516.575 227.1127178902681 513 C 229.44304847984992 508.38792051346127 230.4845294498714 504.8299164688612 230.69847600713305 500.75 L 231 495 L 233.25 494.9616762523523 C 234.4875 494.940598191146 237.8625 496.515598191146 240.75 498.4616762523523 C 243.6375 500.40775431355854 246.45 502 247 502 C 247.55 502 249.10030235712676 500.5375 250.44511634917058 498.75 C 251.78993034121441 496.9625 253.6465169674704 492.575 254.5708644075172 489 C 255.9143525284731 483.8039342953402 256.14365389526984 479.6915261331134 255.71391194411854 468.5 C 255.3377616251285 458.7041303771301 254.54505802569972 452.247787297966 253.0741626032385 447 C 251.91797176067055 442.875 250.64079801207322 438.2520833333333 250.2359987174666 436.72685185185185 C 249.83119942285995 435.2016203703704 249.8375 433.9641203703704 250.25 433.97685185185185 Z " class="even" fill="#ffffff"></path><path d="M 311.4245406593557 491 C 312.81484504207424 493.475 315.18505713376095 499.325 316.6916786408817 504 C 319.0889459813816 511.4386465106651 319.4352989133827 514.1232465131005 319.4654952360052 525.5 C 319.4933034223075 535.9770002769687 319.03581720787344 540.3437305668306 317.1082532857374 548 C 315.792792592893 553.225 314.105292592893 558.7375 313.3582532857374 560.25 C 312.6112139785819 561.7625 312.0149711781176 563.5625 312.03326928470574 564.25 C 312.05156739129393 564.9375 313.0020590110547 564.375 314.1454728841742 563 C 315.28888675729365 561.625 317.4657832731145 558.025 318.9830206971094 555 C 320.50025812110425 551.975 322.7725803654292 546.575 324.03262568449804 543 C 325.2926710035669 539.425 326.7355996684382 536.05 327.23913382865646 535.5 C 327.7983325560488 534.8891987389048 328.08683959867295 538.0027886501437 327.9804184572653 543.5 C 327.8845908427819 548.45 327.8618998444867 552.95 327.92999401660927 553.5 C 327.99808818873186 554.05 329.3795908812577 552.925 331 551 L 333.9461983977133 547.5 L 333.98424840782616 554 C 334.00517591338826 557.575 333.09639354829795 564.1 331.9647320409588 568.5 C 330.8330705336196 572.9 328.5810193331715 578.975 326.96017381774084 582 C 325.33932830231015 585.025 322.0641470645304 589.75 319.68199328934145 592.5 L 315.35080460717967 597.5 L 309.8649188985989 588.5 C 306.84768175887945 583.55 301.93125072226405 575.5081964596097 298.9395165950091 570.6293254657995 C 295.94778246775405 565.7504544719893 293.1625 561.5879544719893 292.75 561.3793254657995 C 292.3375 561.1706964596098 291.9904041726539 561.7875 291.9786759392309 562.75 C 291.9669477058079 563.7125 292.91658443514245 567.65 294.08897978219653 571.5 C 295.2613751292506 575.35 298.42546431339366 583.9 301.1202890802922 590.5 C 303.81511384719073 597.1 306.01673989063147 603.175 306.0127913990495 604 C 306.0088429074675 604.825 303.03579435525666 607.525 299.4060168385809 610 L 292.80642135371596 614.5 L 284.65321067685795 613.1685498932161 C 280.1689448045861 612.436252334485 269.75 611.6256995086437 261.5 611.3673213913466 C 251.991629847213 611.0695329333296 247.0491629847213 611.2396067133703 248 611.8318659385188 C 248.825 612.3457435567606 255.575 613.7280646691618 263 614.9036906327435 C 270.425 616.0793165963254 277.85 617.4113090208201 279.5 617.8636737982872 C 281.51193968821843 618.4152681312195 276.24228469205 618.90027937557 263.5 619.3362901109776 C 253.05 619.6938643054904 231.78613896350106 620.3269793828209 216.24697547444683 620.7432125050458 C 197.57809407230985 621.2432784706256 187.984643034761 621.1607746149532 187.96651221776403 620.5 C 187.95142091564276 619.95 189.12997474844417 617.7 190.58552073510054 615.5 C 192.04106672175692 613.3 195.5856307403294 608.575 198.46232966526162 605 C 201.33902859019383 601.425 209.14884109289312 592.875 215.81746856014894 586 C 222.48609602740476 579.125 227.6177404743395 573.1975202279366 227.22112288667066 572.827822728748 C 226.8245052990018 572.4581252295593 224.7 572.5873469225031 222.5 573.1149820464009 C 220.3 573.6426171702985 217.7125 574.2825969423619 216.75 574.5371593176528 C 215.77910195995622 574.7939428098491 214.98313459048123 574.4434986000313 214.96211732459318 573.75 C 214.94128185311942 573.0625 217.07878185311944 570.2447898010345 219.71211732459318 567.4884217800766 C 222.6594847601211 564.4033498500823 227.38308324053048 561.0298696590111 232 558.7127121240559 C 236.125 556.6424398342024 240.175 554.9803153857944 241 555.0191022387047 C 241.85655300124023 555.0593725360005 240.35517667080074 556.9894142066893 237.5 559.5184044525829 C 234.75 561.9542338173056 232.725 564.213902484839 233 564.5398903804348 C 233.275 564.8658782760306 237.55 564.0059126780177 242.5 562.628855718184 C 247.45 561.2517987583503 256 558.9466631026438 261.5 557.5063320388363 C 267 556.0660009750287 272.2875 554.6878499220056 273.25 554.4437741432295 C 274.41866321863046 554.1474184183314 275.0006162089912 554.5813367813695 275.00185497592634 555.75 C 275.00287521268575 556.7125 273.82083904521943 559.75 272.3751079371122 562.5 C 270.929376829005 565.25 267.6773263855112 570.425 265.14832917379266 574 C 262.6193319620741 577.575 257.0513681295405 584.6625 252.77507621260676 589.75 C 248.49878429567303 594.8375 245 599.45 245 600 C 245 600.6182829819825 245.85886329053946 600.555950526028 247.25 599.8367050641908 C 248.4875 599.1968928494957 251.9433132285102 596.8343928494958 254.92958495224488 594.5867050641908 C 257.91585667597957 592.3390172788859 262.7669894790291 587.575 265.7098800701327 584 C 268.65277066123633 580.425 272.8008269060342 574.125 274.92778283635016 570 C 277.05473876666605 565.875 280.0060654992645 558.675 281.4862866865688 554 C 283.75180753904533 546.8447788234839 284.8359385277366 544.9313581103656 288.3387989681065 541.9057613211291 C 290.6274595356479 539.9289300477502 295.16998407599954 534.3039300477502 298.4332979466657 529.4057613211291 C 301.69661181733176 524.5075925945082 305.9342310677381 517.125 307.8502296142353 513 L 311.33386333513926 505.5 L 310.7389405765996 498.5 C 310.41173305940276 494.65 309.8633745735121 490.375 309.52036616350915 489 C 309.1508768816125 487.5188475040493 309.92690225455954 488.33392550728877 311.4245406593557 491 Z " class="even" fill="#ffffff"></path><path d="M 352.9831809451223 554.5 C 354.0433352655691 556.7 355.3878413357094 560.975 355.97097221210083 564 C 356.5541030884922 567.025 357.29077290999635 574.45 357.6080162598878 580.5 C 357.9252596097793 586.55 357.69879360873836 597.8 357.10475847979677 605.5 C 356.5107233508552 613.2 355.90663832197026 619.5843817789942 355.762347304497 619.6875150644316 C 355.61805628702365 619.790648349869 353.58831101659615 620.2406483498689 351.25180225910253 620.6875150644316 L 347.0036045182051 621.5 L 348.3867380184354 617 C 349.147461443562 614.525 350.32364211607455 607.325 351.000472846241 601 C 351.79720417494275 593.5545259258549 352.02386206663374 582.6249342996374 351.64335090451766 570 L 351.055627635219 550.5 L 352.9831809451223 554.5 Z " class="even" fill="#ffffff"></path><path d="M 0.5496031746031744 635 C 0.2167658730158728 634.725 -0.0075292397660819965 635.4 0.051169590643274754 636.5 C 0.12550503410998126 637.8930258446911 0.3091628886429145 638.0447693835183 0.6563283208020048 637 C 0.9304667919799494 636.175 0.8824404761904758 635.275 0.5496031746031744 635 Z " class="odd" fill="#000000"></path></g></svg>